<?xml version="1.0" encoding="UTF-8" standalone="no"?>
<!DOCTYPE svg PUBLIC "-//W3C//DTD SVG 1.1//EN" "http://www.w3.org/Graphics/SVG/1.1/DTD/svg11.dtd">
<svg width="100%" height="100%" viewBox="0 0 674 548" version="1.1" xmlns="http://www.w3.org/2000/svg" xmlns:xlink="http://www.w3.org/1999/xlink" xml:space="preserve" xmlns:serif="http://www.serif.com/" style="fill-rule:evenodd;clip-rule:evenodd;stroke-linejoin:round;stroke-miterlimit:2;">
    <g transform="matrix(1,0,0,1,-203.205,-289.733)">
        <g transform="matrix(0.828447,0,0,0.828447,31.1594,206.006)">
            <path d="M411.631,128.084C381.783,162.758 368.508,287.941 430.364,322.597C445.875,331.288 493.863,331.469 525.74,318.766C555.961,306.723 576.23,296.974 585.584,274.751C594.249,254.167 598.696,232.943 587.455,206.649C557.145,135.754 501.374,101.825 466.519,101.082C437.637,100.466 421.752,116.326 411.631,128.084Z" style="fill:rgb(248,238,223);"/>
        </g>
        <g transform="matrix(-0.828447,0,0,0.828447,1048.84,206.006)">
            <path d="M411.631,128.084C381.783,162.758 368.508,287.941 430.364,322.597C445.875,331.288 493.863,331.469 525.74,318.766C555.961,306.723 576.23,296.974 585.584,274.751C594.249,254.167 598.696,232.943 587.455,206.649C557.145,135.754 501.374,101.825 466.519,101.082C437.637,100.466 421.752,116.326 411.631,128.084Z" style="fill:rgb(248,238,223);"/>
        </g>
        <g transform="matrix(0.800218,-0.214418,0.214418,0.800218,-147.563,453.925)">
            <path d="M411.631,128.084C381.783,162.758 368.508,287.941 430.364,322.597C445.875,331.288 493.863,331.469 525.74,318.766C555.961,306.723 576.23,296.974 585.584,274.751C594.249,254.167 598.696,232.943 587.455,206.649C557.145,135.754 501.374,101.825 466.519,101.082C437.637,100.466 421.752,116.326 411.631,128.084Z" style="fill:rgb(248,238,223);"/>
        </g>
        <g transform="matrix(-0.800218,-0.214418,-0.214418,0.800218,1227.56,453.925)">
            <path d="M411.631,128.084C381.783,162.758 368.508,287.941 430.364,322.597C445.875,331.288 493.863,331.469 525.74,318.766C555.961,306.723 576.23,296.974 585.584,274.751C594.249,254.167 598.696,232.943 587.455,206.649C557.145,135.754 501.374,101.825 466.519,101.082C437.637,100.466 421.752,116.326 411.631,128.084Z" style="fill:rgb(248,238,223);"/>
        </g>
        <g transform="matrix(0.94947,0,0,0.94947,27.2864,141.053)">
            <path d="M339.082,675.868C332.597,669.234 326.495,661.715 321.448,653.409C296.81,612.856 312.798,550.18 319.49,533.002C334.97,493.264 363.805,481.102 372.631,474.355C406.233,448.665 387.714,422.312 426.012,389.376C462.001,358.426 508.131,350.276 540,348.682C571.869,350.276 617.999,358.426 653.988,389.376C692.286,422.312 673.767,448.665 707.369,474.355C716.195,481.102 745.03,493.264 760.51,533.002C767.202,550.18 783.19,612.856 758.552,653.409C752.391,663.548 744.657,672.516 736.575,680.131L713.661,503.366L679.629,523.015L687.032,591.272L593.93,592.086L572.571,411.486L535.851,432.686L567.793,689.26L604.463,668.089L598.492,625.97L690.606,625.156L701.561,704.874C698.777,706.234 696.289,707.277 694.203,707.986C645.848,724.433 626.033,735.532 540,732.223C453.967,735.532 434.152,724.433 385.797,707.986C381.803,706.628 376.332,704.046 370.129,700.351L381.453,634.317C392.469,637.673 433.34,643.068 445.516,643.068C476.244,643.068 494.228,633.024 506.475,619.465C524.9,599.065 530.364,582.095 530.364,547.833C530.364,529.408 527.303,513.832 521.18,501.105C515.986,490.309 507.922,480.897 498.322,474.202C483.34,463.753 472.876,460.941 458.25,459.044C457.565,458.955 429.569,455.584 408.001,458.381L402.399,496.859C402.399,496.859 447.033,495.243 461.15,499.656C464.904,500.83 471.86,499.812 483.854,512.61C488.523,517.591 494.793,533.119 493.315,552.028C491.231,578.704 487.112,603.606 444.472,605.939C432.083,606.617 393.397,600.334 387.019,596.558L397.817,526.058L359.865,547.97L339.082,675.868Z" style="fill:rgb(248,238,223);"/>
        </g>
    </g>
</svg>
