<?xml version="1.0" encoding="UTF-8" standalone="no"?>
<!DOCTYPE svg PUBLIC "-//W3C//DTD SVG 1.1//EN" "http://www.w3.org/Graphics/SVG/1.1/DTD/svg11.dtd">
<svg width="100%" height="100%" viewBox="0 0 110 90" version="1.1" xmlns="http://www.w3.org/2000/svg" xmlns:xlink="http://www.w3.org/1999/xlink" xml:space="preserve" xmlns:serif="http://www.serif.com/" style="fill-rule:evenodd;clip-rule:evenodd;stroke-linejoin:round;stroke-miterlimit:2;">
    <g transform="matrix(1,0,0,1,-595.107,-171.969)">
        <g transform="matrix(0.154803,0,0,0.154803,566.425,131.789)">
            <g transform="matrix(0.872536,0,0,0.872536,4.07911,171.373)">
                <path d="M411.631,128.084C381.783,162.758 368.508,287.941 430.364,322.597C445.875,331.288 493.863,331.469 525.74,318.766C555.961,306.723 576.23,296.974 585.584,274.751C594.249,254.167 598.696,232.943 587.455,206.649C557.145,135.754 501.374,101.825 466.519,101.082C437.637,100.466 421.752,116.326 411.631,128.084Z" style="fill:rgb(196,29,29);"/>
            </g>
            <g transform="matrix(-0.872536,0,0,0.872536,1075.92,171.373)">
                <path d="M411.631,128.084C381.783,162.758 368.508,287.941 430.364,322.597C445.875,331.288 493.863,331.469 525.74,318.766C555.961,306.723 576.23,296.974 585.584,274.751C594.249,254.167 598.696,232.943 587.455,206.649C557.145,135.754 501.374,101.825 466.519,101.082C437.637,100.466 421.752,116.326 411.631,128.084Z" style="fill:rgb(196,29,29);"/>
            </g>
            <g transform="matrix(0.842805,-0.225829,0.225829,0.842805,-184.155,432.486)">
                <path d="M411.631,128.084C381.783,162.758 368.508,287.941 430.364,322.597C445.875,331.288 493.863,331.469 525.74,318.766C555.961,306.723 576.23,296.974 585.584,274.751C594.249,254.167 598.696,232.943 587.455,206.649C557.145,135.754 501.374,101.825 466.519,101.082C437.637,100.466 421.752,116.326 411.631,128.084Z" style="fill:rgb(196,29,29);"/>
            </g>
            <g transform="matrix(-0.842805,-0.225829,-0.225829,0.842805,1264.16,432.486)">
                <path d="M411.631,128.084C381.783,162.758 368.508,287.941 430.364,322.597C445.875,331.288 493.863,331.469 525.74,318.766C555.961,306.723 576.23,296.974 585.584,274.751C594.249,254.167 598.696,232.943 587.455,206.649C557.145,135.754 501.374,101.825 466.519,101.082C437.637,100.466 421.752,116.326 411.631,128.084Z" style="fill:rgb(196,29,29);"/>
            </g>
            <g transform="matrix(1,0,0,1,0,102.962)">
                <path d="M540,348.682C571.869,350.276 617.999,358.426 653.988,389.376C692.286,422.312 673.767,448.665 707.369,474.355C716.195,481.102 745.03,493.264 760.51,533.002C767.202,550.18 783.19,612.856 758.552,653.409C740.287,683.47 708.192,703.228 694.203,707.986C645.848,724.433 626.033,735.532 540,732.223C453.967,735.532 434.152,724.433 385.797,707.986C371.808,703.228 339.713,683.47 321.448,653.409C296.81,612.856 312.798,550.18 319.49,533.002C334.97,493.264 363.805,481.102 372.631,474.355C406.233,448.665 387.714,422.312 426.012,389.376C462.001,358.426 508.131,350.276 540,348.682Z" style="fill:rgb(196,29,29);"/>
            </g>
        </g>
    </g>
</svg>
